<svg xmlns="http://www.w3.org/2000/svg" viewBox="0 0 405.15 363.75"><defs><style>.cls-1,.cls-2,.cls-3,.cls-4,.cls-5,.cls-6{fill:none;stroke:#ed1c24;stroke-linecap:round;stroke-miterlimit:10;}.cls-1,.cls-3,.cls-4,.cls-5,.cls-6{stroke-width:5px;}.cls-2{stroke-width:7px;}.cls-3{stroke-dasharray:15.97 15.97;}.cls-4{stroke-dasharray:14.48 14.48;}.cls-5{stroke-dasharray:18.88 18.88;}.cls-6{stroke-dasharray:10.48 10.48;}</style></defs><title>Asset 1</title><g id="Layer_2" data-name="Layer 2"><g id="Dark_Theme_3" data-name="Dark Theme 3"><path class="cls-1" d="M21.56,239A159.83,159.83,0,0,1,2.5,163a161.65,161.65,0,0,1,2.16-26.39"/><path class="cls-1" d="M261,290.25a159.86,159.86,0,0,1-63.52,29.62"/><path class="cls-1" d="M131.53,5.59A160.87,160.87,0,0,1,269,42.43"/><path class="cls-2" d="M41.53,4.27,7.16,24.11a5,5,0,0,0-2.47,4.28V68.07a5,5,0,0,0,2.47,4.28L41.53,92.2a5,5,0,0,0,4.95,0L80.84,72.36a5,5,0,0,0,2.47-4.28V28.39a5,5,0,0,0-2.47-4.28L46.47,4.27A5,5,0,0,0,41.53,4.27Z"/><path class="cls-3" d="M306.95,72.36l-75.21,43.42a13.66,13.66,0,0,0-6.83,11.83v86.84a13.66,13.66,0,0,0,6.83,11.83l75.21,43.42a13.66,13.66,0,0,0,13.66,0l75.21-43.42a13.66,13.66,0,0,0,6.83-11.83V127.61a13.66,13.66,0,0,0-6.83-11.83L320.61,72.36A13.66,13.66,0,0,0,306.95,72.36Z"/><line class="cls-1" x1="99.2" y1="219.75" x2="96.06" y2="212.39"/><line class="cls-4" x1="90.39" y1="199.07" x2="59.17" y2="125.78"/><line class="cls-1" x1="56.33" y1="119.11" x2="53.2" y2="111.75"/><line class="cls-1" x1="208.2" y1="112.75" x2="200.66" y2="110.07"/><line class="cls-5" x1="182.88" y1="103.74" x2="120.63" y2="81.6"/><line class="cls-1" x1="111.73" y1="78.43" x2="104.2" y2="75.75"/><line class="cls-1" x1="212.2" y1="232.75" x2="205.62" y2="237.31"/><line class="cls-6" x1="197" y1="243.27" x2="184.08" y2="252.22"/><line class="cls-1" x1="179.77" y1="255.2" x2="173.2" y2="259.75"/><path class="cls-2" d="M310,98.77l-56.76,32.77a8,8,0,0,0-4,6.92V204a8,8,0,0,0,4,6.92L310,243.69a8,8,0,0,0,8,0l56.76-32.77a8,8,0,0,0,4-6.92V138.46a8,8,0,0,0-4-6.92L318,98.77A8,8,0,0,0,310,98.77Z"/><path class="cls-2" d="M106.53,240.88,58.84,268.42a5,5,0,0,0-2.47,4.28v55.07a5,5,0,0,0,2.47,4.28l47.69,27.53a5,5,0,0,0,4.95,0l47.69-27.53a5,5,0,0,0,2.47-4.28V272.7a5,5,0,0,0-2.47-4.28l-47.69-27.53A5,5,0,0,0,106.53,240.88Z"/></g></g></svg>