<svg xmlns="http://www.w3.org/2000/svg" viewBox="0 0 667.19 830.02"><defs><style>.cls-1,.cls-2,.cls-3,.cls-4,.cls-5,.cls-6{fill:none;stroke:#ed1c24;stroke-linecap:round;stroke-miterlimit:10;}.cls-1,.cls-3,.cls-4,.cls-5,.cls-6{stroke-width:5px;}.cls-2{stroke-width:7px;}.cls-3{stroke-dasharray:15.78 15.78;}.cls-4{stroke-dasharray:16.21 16.21;}.cls-5{stroke-dasharray:15.15 15.15;}.cls-6{stroke-dasharray:12.5 12.5;}.cls-7{font-size:144px;fill:#ed1c24;font-family:CourierNewPSMT, Courier New;}</style></defs><title>Asset 2</title><g id="Layer_2" data-name="Layer 2"><g id="Dark_Theme_4" data-name="Dark Theme 4"><path class="cls-1" d="M34,393.83A264.49,264.49,0,0,1,2.5,268.17a267.5,267.5,0,0,1,3.57-43.68"/><path class="cls-1" d="M430.23,478.69a264.55,264.55,0,0,1-105.11,49"/><path class="cls-1" d="M216,7.62a266.23,266.23,0,0,1,227.5,61"/><path class="cls-2" d="M68.7,4.49,8.59,39.19a5,5,0,0,0-2.47,4.28v69.41a5,5,0,0,0,2.47,4.28l60.11,34.7a5,5,0,0,0,4.95,0l60.11-34.7a5,5,0,0,0,2.47-4.28V43.48a5,5,0,0,0-2.47-4.28L73.65,4.49A5,5,0,0,0,68.7,4.49Z"/><path class="cls-3" d="M510.79,115.52l-133.4,77a13.66,13.66,0,0,0-6.83,11.83v154a13.66,13.66,0,0,0,6.83,11.83l133.4,77a13.66,13.66,0,0,0,13.66,0l133.4-77a13.66,13.66,0,0,0,6.83-11.83v-154a13.66,13.66,0,0,0-6.83-11.83l-133.4-77A13.66,13.66,0,0,0,510.79,115.52Z"/><line class="cls-1" x1="162.52" y1="362.02" x2="159.39" y2="354.66"/><line class="cls-4" x1="153.04" y1="339.75" x2="92.71" y2="198.11"/><line class="cls-1" x1="89.53" y1="190.66" x2="86.4" y2="183.3"/><line class="cls-1" x1="342.9" y1="184.95" x2="335.36" y2="182.27"/><line class="cls-5" x1="321.09" y1="177.19" x2="185.47" y2="128.94"/><line class="cls-1" x1="178.33" y1="126.4" x2="170.8" y2="123.72"/><line class="cls-1" x1="349.52" y1="383.54" x2="342.94" y2="388.09"/><line class="cls-6" x1="332.67" y1="395.21" x2="296.7" y2="420.11"/><line class="cls-1" x1="291.56" y1="423.66" x2="284.98" y2="428.22"/><path class="cls-2" d="M514,160.31l-99.16,57.25a8,8,0,0,0-4,6.92V339a8,8,0,0,0,4,6.92L514,403.15a8,8,0,0,0,8,0l99.16-57.25a8,8,0,0,0,4-6.92V224.48a8,8,0,0,0-4-6.92L522,160.31A8,8,0,0,0,514,160.31Z"/><path class="cls-2" d="M176.27,396.05,94.11,443.49a5,5,0,0,0-2.47,4.28v94.87a5,5,0,0,0,2.47,4.28l82.16,47.43a5,5,0,0,0,4.95,0l82.16-47.43a5,5,0,0,0,2.47-4.28V447.77a5,5,0,0,0-2.47-4.28l-82.16-47.43A5,5,0,0,0,176.27,396.05Z"/><text class="cls-7" transform="translate(27.94 732.15)">neogma</text></g></g></svg>