<svg xmlns="http://www.w3.org/2000/svg" viewBox="0 0 985.57 282.71"><defs><style>.cls-1,.cls-2,.cls-3,.cls-4,.cls-5{fill:none;stroke:#ed1c24;stroke-linecap:round;stroke-miterlimit:10;}.cls-1,.cls-3,.cls-4,.cls-5{stroke-width:5px;}.cls-2{stroke-width:7px;}.cls-3{stroke-dasharray:15.59 15.59;}.cls-4{stroke-dasharray:14.97 14.97;}.cls-5{stroke-dasharray:13.89 13.89;}.cls-6{font-size:144px;fill:#ed1c24;font-family:CourierNewPSMT, Courier New;}</style></defs><title>Asset 4</title><g id="Layer_2" data-name="Layer 2"><g id="Dark_Theme_6" data-name="Dark Theme 6"><path class="cls-1" d="M17.25,185.52A123.7,123.7,0,0,1,2.5,126.75a125.11,125.11,0,0,1,1.67-20.43"/><path class="cls-1" d="M202.55,225.21a123.72,123.72,0,0,1-49.16,22.93"/><path class="cls-1" d="M102.36,4.89a124.51,124.51,0,0,1,106.4,28.52"/><path class="cls-2" d="M32.15,4.19,6.67,18.9a5,5,0,0,0-2.47,4.28V52.61a5,5,0,0,0,2.47,4.28L32.15,71.6a5,5,0,0,0,4.95,0L62.57,56.89A5,5,0,0,0,65,52.61V23.19a5,5,0,0,0-2.47-4.28L37.09,4.19A5,5,0,0,0,32.15,4.19Z"/><path class="cls-3" d="M236.58,57.46,181.47,89.28a13.66,13.66,0,0,0-6.83,11.83v63.64a13.66,13.66,0,0,0,6.83,11.83l55.12,31.82a13.66,13.66,0,0,0,13.66,0l55.12-31.82a13.66,13.66,0,0,0,6.83-11.83V101.12a13.66,13.66,0,0,0-6.83-11.83L250.25,57.46A13.66,13.66,0,0,0,236.58,57.46Z"/><line class="cls-1" x1="77.34" y1="170.64" x2="74.2" y2="163.28"/><line class="cls-4" x1="68.34" y1="149.51" x2="47.81" y2="101.3"/><line class="cls-1" x1="44.87" y1="94.42" x2="41.74" y2="87.06"/><line class="cls-1" x1="161.7" y1="87.83" x2="154.16" y2="85.15"/><line class="cls-5" x1="141.08" y1="80.49" x2="95.29" y2="64.2"/><line class="cls-1" x1="88.75" y1="61.88" x2="81.21" y2="59.19"/><line class="cls-1" x1="164.8" y1="180.71" x2="158.22" y2="185.26"/><line class="cls-1" x1="141.19" y1="197.05" x2="134.61" y2="201.6"/><path class="cls-2" d="M239.59,77.53l-42.12,24.32a8,8,0,0,0-4,6.92v48.64a8,8,0,0,0,4,6.92l42.12,24.32a8,8,0,0,0,8,0l42.12-24.32a8,8,0,0,0,4-6.92V108.77a8,8,0,0,0-4-6.92L247.59,77.53A8,8,0,0,0,239.59,77.53Z"/><path class="cls-2" d="M82.45,187.32,46.66,208a5,5,0,0,0-2.47,4.28V253.6a5,5,0,0,0,2.47,4.28l35.79,20.66a5,5,0,0,0,4.95,0l35.79-20.66a5,5,0,0,0,2.47-4.28V212.27a5,5,0,0,0-2.47-4.28L87.4,187.32A5,5,0,0,0,82.45,187.32Z"/><text class="cls-6" transform="translate(386.9 164.77)">neogma</text></g></g></svg>